<?xml version="1.0" standalone="no"?>
<!DOCTYPE svg PUBLIC "-//W3C//DTD SVG 20010904//EN"
 "http://www.w3.org/TR/2001/REC-SVG-20010904/DTD/svg10.dtd">
<svg version="1.0" xmlns="http://www.w3.org/2000/svg"
 width="23.000000pt" height="23.000000pt" viewBox="0 0 23.000000 23.000000"
 preserveAspectRatio="xMidYMid meet">

<g transform="translate(0.000000,23.000000) scale(0.100000,-0.100000)"
fill="#269926" stroke="none">
<path d="M59 207 c-67 -45 -76 -123 -19 -171 55 -46 95 -46 149 0 58 48 50
126 -18 171 -43 29 -69 29 -112 0z m101 -2 c31 -16 60 -61 60 -92 0 -31 -36
-79 -69 -92 -38 -16 -75 -8 -106 24 -49 48 -40 120 19 156 38 23 58 24 96 4z"/>
<path d="M80 186 c0 -2 7 -7 16 -10 8 -3 12 -2 9 4 -6 10 -25 14 -25 6z"/>
<path d="M60 166 c0 -39 60 -126 87 -126 22 0 15 18 -22 51 -19 18 -35 40 -35
49 0 10 -7 23 -15 30 -12 10 -15 9 -15 -4z"/>
<path d="M166 77 c3 -10 9 -15 12 -12 3 3 0 11 -7 18 -10 9 -11 8 -5 -6z"/>
</g>
</svg>
